<?xml version="1.0" encoding="UTF-8"?>
<svg width="700pt" height="700pt" version="1.1" viewBox="0 0 700 600" xmlns="http://www.w3.org/2000/svg" xmlns:xlink="http://www.w3.org/1999/xlink">
 <g>
  <path d="m546 246.4h-2.8008l4.1992 7c14 23.801 22.398 98-1.3984 134.4v39.199c0 8.3984-7 14-14 14h-21c-8.3984 0-14-5.6016-14-14v-18.199h-292.6v18.199c0 8.3984-5.6016 14-14 14h-21c-7 0-14-5.6016-14-14v-36.398c-25.199-35-16.801-112-2.8008-137.2l4.1992-7h-2.8008c-11.199 0-21-8.3984-21-21v-9.8008c0-7 5.6016-14 14-14h35c9.8008-18.199 19.602-36.398 29.398-54.602 8.3984-14 29.398-28 49-28h179.2c19.602 0 40.602 14 49 28 9.8008 18.199 19.602 36.398 29.398 54.602h35c8.3984 0 14 7 14 14v9.8008c0 12.602-9.8008 21-21 21zm-257.6 95.199h123.2c4.1992 0 8.3984 4.1992 8.3984 8.3984 0 4.1992-4.1992 7-8.3984 7h-123.2c-4.1992 0-8.3984-2.8008-8.3984-7 0-4.1992 4.1992-8.3984 8.3984-8.3984zm203-44.801c-15.398 0-30.801 12.602-36.398 28-4.1992 15.398 5.6016 28 21 28s30.801-12.602 35-28-4.1992-28-19.602-28zm-282.8 0c15.398 0 30.801 12.602 36.398 28 4.1992 15.398-5.6016 28-21 28-15.398 0-30.801-12.602-35-28-4.1992-15.398 4.1992-28 19.602-28zm147-50.398 8.3984-12.602c7-9.8008 18.199-9.8008 29.398-9.8008h49c11.199 0 22.398 0 29.398 9.8008l8.3984 12.602h22.398l-35-88.199c-4.1992-8.3984-22.398-16.801-28-16.801h-179.2c-5.6016 0-23.801 8.3984-28 16.801l-35 88.199zm64.398-93.801c16.801 0 29.398 12.602 29.398 29.398 0 16.801-12.602 30.801-29.398 30.801-16.801 0-30.801-14-30.801-30.801 0-16.801 14-29.398 30.801-29.398z" fill-rule="evenodd"/>
  <use x="70" y="581" xlink:href="#w"/>
  <use x="75.136719" y="581" xlink:href="#c"/>
  <use x="78.589844" y="581" xlink:href="#b"/>
  <use x="83.335938" y="581" xlink:href="#f"/>
  <use x="88.0625" y="581" xlink:href="#e"/>
  <use x="91.40625" y="581" xlink:href="#b"/>
  <use x="96.15625" y="581" xlink:href="#d"/>
  <use x="103.601562" y="581" xlink:href="#j"/>
  <use x="108.613281" y="581" xlink:href="#i"/>
  <use x="115.613281" y="581" xlink:href="#h"/>
  <use x="121.472656" y="581" xlink:href="#f"/>
  <use x="126.195312" y="581" xlink:href="#d"/>
  <use x="131.207031" y="581" xlink:href="#v"/>
  <use x="136.042969" y="581" xlink:href="#u"/>
  <use x="141.851562" y="581" xlink:href="#f"/>
  <use x="146.578125" y="581" xlink:href="#t"/>
  <use x="151.140625" y="581" xlink:href="#a"/>
  <use x="155.949219" y="581" xlink:href="#d"/>
  <use x="160.960938" y="581" xlink:href="#s"/>
  <use x="165.96875" y="581" xlink:href="#a"/>
  <use x="170.777344" y="581" xlink:href="#g"/>
  <use x="175.761719" y="581" xlink:href="#c"/>
  <use x="70" y="588" xlink:href="#r"/>
  <use x="73.046875" y="588" xlink:href="#c"/>
  <use x="76.496094" y="588" xlink:href="#a"/>
  <use x="81.308594" y="588" xlink:href="#q"/>
  <use x="91.039062" y="588" xlink:href="#e"/>
  <use x="94.382812" y="588" xlink:href="#p"/>
  <use x="99.367187" y="588" xlink:href="#b"/>
  <use x="106.550781" y="588" xlink:href="#o"/>
  <use x="112.410156" y="588" xlink:href="#a"/>
  <use x="117.21875" y="588" xlink:href="#g"/>
  <use x="122.203125" y="588" xlink:href="#n"/>
  <use x="129.625" y="588" xlink:href="#m"/>
  <use x="134.753906" y="588" xlink:href="#c"/>
  <use x="138.207031" y="588" xlink:href="#a"/>
  <use x="143.015625" y="588" xlink:href="#l"/>
  <use x="145.414062" y="588" xlink:href="#b"/>
  <use x="150.160156" y="588" xlink:href="#k"/>
  <use x="154.3125" y="588" xlink:href="#e"/>
 </g>
</svg>
